<svg xmlns="http://www.w3.org/2000/svg" width="573" height="662" viewBox="0 0 573 662" version="1.1"><path d="M 265.250 7.689 C 266.212 7.941, 267.788 7.941, 268.750 7.689 C 269.712 7.438, 268.925 7.232, 267 7.232 C 265.075 7.232, 264.288 7.438, 265.250 7.689 M 243.500 113.206 C 231.950 118.737, 200.450 133.318, 173.500 145.610 C 115.904 171.878, 117.500 171.099, 117.500 172.954 C 117.500 173.856, 124.674 177.771, 136.500 183.324 C 159.884 194.303, 203.029 214.636, 216.500 221.025 C 255.830 239.681, 265.463 244, 267.738 244 C 270.416 244, 337.398 213.742, 339.940 211.384 C 340.733 210.649, 341.183 209.856, 340.940 209.621 C 340.470 209.165, 309.857 194.951, 278.232 180.505 C 257.750 171.149, 256.912 170.469, 258.427 164.434 C 259.082 161.826, 263.967 159, 267.820 159 C 268.856 159, 274.608 161.405, 280.602 164.344 C 286.596 167.283, 307.025 176.570, 326 184.982 C 344.975 193.393, 361.063 200.718, 361.750 201.260 C 362.673 201.987, 363 207.288, 363 221.500 C 363 237.756, 362.756 240.958, 361.434 242.055 C 355.636 246.867, 355.528 256.407, 361.200 262.645 C 363.135 264.772, 363.134 264.862, 361.095 273.645 C 358.314 285.626, 354 309.089, 354 312.235 C 354 313.714, 354.715 315.060, 355.700 315.438 C 359.742 316.990, 381.670 315.663, 383.582 313.752 C 384.139 313.195, 378.386 279.449, 376.359 271.378 C 374.833 265.302, 374.849 265.008, 376.840 262.477 C 380.127 258.298, 380.620 251.911, 378.062 246.628 C 376.877 244.181, 375.254 241.928, 374.454 241.621 C 373.244 241.156, 373 237.413, 373 219.271 L 373 197.479 395.500 186.243 C 407.875 180.062, 418 174.564, 418 174.023 C 418 172.711, 416.043 171.752, 375.500 153.199 C 356.250 144.389, 323.923 129.491, 303.663 120.091 C 283.402 110.691, 266.302 103.034, 265.663 103.075 C 265.023 103.116, 255.050 107.675, 243.500 113.206 M 515.750 134.706 C 516.987 134.944, 519.013 134.944, 520.250 134.706 C 521.487 134.467, 520.475 134.272, 518 134.272 C 515.525 134.272, 514.513 134.467, 515.750 134.706 M 174 244.566 C 174 260.713, 174.400 271.879, 175.020 273.038 C 175.714 274.334, 179.791 276.103, 187.770 278.568 C 214.675 286.882, 237.029 297.389, 254.309 309.843 C 258.625 312.954, 263.368 316.268, 264.848 317.207 L 267.538 318.915 280.019 310.404 C 298.935 297.506, 319.653 288.139, 340.645 282.995 C 344.756 281.988, 344.803 281.923, 346.474 275.106 C 348.144 268.292, 348.139 268.193, 345.871 263.866 C 343.048 258.479, 342.890 248.038, 345.428 234.637 C 346.352 229.762, 346.926 225.593, 346.705 225.371 C 346.483 225.150, 331.497 232.094, 313.401 240.801 C 295.306 249.509, 278.857 257.391, 276.849 258.317 C 268.391 262.216, 267.319 261.850, 220.119 239 C 196.261 227.450, 176.124 218, 175.370 218 C 174.244 218, 174 222.735, 174 244.566 M 94.140 333.750 C 92.050 337.683, 72 383.022, 72 383.817 C 72 384.290, 82.333 384.463, 94.961 384.203 C 135.880 383.360, 163.101 387.042, 197.633 398.090 C 227.926 407.781, 248.886 420.091, 272.144 441.849 C 276.866 446.266, 280.636 449, 282.005 449 C 283.390 449, 287.249 446.152, 292.295 441.404 C 313.585 421.377, 336.510 407.925, 365.373 398.524 C 401.384 386.794, 440.564 381.595, 474.213 384.082 C 482.855 384.720, 490.604 384.982, 491.432 384.664 C 493.158 384.002, 490.643 377.510, 477.617 349 L 470.079 332.500 457.289 332.188 C 439.155 331.746, 412.328 335.280, 393 340.655 C 350.205 352.557, 314.563 375.837, 291.832 406.733 C 287.799 412.214, 284.031 417.507, 283.457 418.495 C 282.556 420.046, 281.479 418.971, 275.545 410.600 C 259.207 387.552, 233.307 366.476, 205 353.194 C 177.901 340.480, 138.625 332.005, 106.785 332.001 C 96.649 332, 94.945 332.236, 94.140 333.750 M 91 404.972 C 74.822 405.843, 57.401 408.424, 55.157 410.282 C 52.930 412.125, 47 425.079, 47 428.099 C 47 433.022, 48.952 433.541, 60.311 431.640 C 78.172 428.650, 105.530 427.481, 127.744 428.758 C 164.552 430.875, 196.548 438.508, 227 452.436 C 242.587 459.565, 256.033 467.661, 264.257 474.866 C 270.740 480.546, 274.691 481.986, 283.816 481.994 C 290.970 482.001, 292.503 481.366, 299.500 475.495 C 325.651 453.556, 367.014 437.336, 414.572 430.372 C 431.742 427.857, 476.882 427.840, 493 430.342 C 499.325 431.324, 506.150 432.556, 508.167 433.080 C 512.544 434.217, 516.568 432.760, 517.354 429.753 C 517.936 427.528, 515.191 419.607, 511.744 413.569 C 509.090 408.920, 508.203 408.621, 491.089 406.600 C 425.064 398.805, 360.812 411.522, 307.829 442.871 C 299.962 447.526, 284.917 458.708, 283.554 460.912 C 283.202 461.482, 278.451 458.522, 272.703 454.154 C 245.233 433.278, 206.488 417.361, 163 409.086 C 141.582 405.011, 116.692 403.589, 91 404.972 M 424.191 497.025 C 414.535 499.555, 407.661 503.354, 401.209 509.726 C 385.514 525.227, 383.735 552.632, 397.438 567.800 C 405.125 576.308, 418.266 582.426, 441.959 588.527 C 467.952 595.220, 475 600.024, 475 611.049 C 475 622.552, 464.365 629.991, 447.500 630.285 C 432.044 630.554, 421.064 624.181, 415.568 611.750 L 413.025 606 400.094 606 C 392.982 606, 386.452 606.273, 385.582 606.607 C 383.285 607.488, 383.591 612.598, 386.445 621.034 C 392.238 638.159, 402.857 647.522, 424 654.149 C 430.521 656.193, 433.523 656.500, 447 656.500 C 460.474 656.500, 463.477 656.193, 469.975 654.153 C 480.716 650.780, 486.613 647.511, 493.078 641.344 C 503.398 631.501, 507.611 620.154, 506.801 604.386 C 506.188 592.451, 503.640 586.734, 495.622 579.310 C 487.553 571.837, 479.397 568.198, 457.982 562.514 C 432.668 555.796, 424.487 551.616, 420.935 543.586 C 415.802 531.983, 426.926 521.875, 445 521.719 C 458.832 521.599, 467.776 526.610, 472.797 537.292 L 475.010 542 488.255 541.985 C 495.540 541.976, 502.148 541.559, 502.940 541.058 C 505.040 539.730, 502.901 529.272, 498.845 521.033 C 490.244 503.562, 472.223 494.938, 444.560 495.055 C 435.051 495.095, 429.512 495.631, 424.191 497.025 M 82 498 L 67.500 498.500 67.244 574.890 C 67.057 630.493, 67.295 651.650, 68.116 652.640 C 69.672 654.515, 165.931 654.669, 167.800 652.800 C 169.573 651.027, 169.454 627.621, 167.664 626.137 C 166.763 625.388, 155.799 624.942, 133.914 624.764 L 101.500 624.500 101 561.614 C 100.509 499.821, 100.465 498.718, 98.500 498.114 C 97.400 497.776, 89.975 497.725, 82 498 M 194.460 499.250 C 194.198 499.938, 194.099 534.925, 194.241 577 L 194.500 653.500 207.500 653.788 C 214.650 653.947, 221.508 653.827, 222.741 653.522 L 224.982 652.966 225.241 602.462 L 225.500 551.957 237.451 577.229 C 244.023 591.128, 252.655 609.362, 256.631 617.750 L 263.861 633 275.849 633 C 282.442 633, 288.457 632.762, 289.215 632.471 C 289.973 632.180, 298.673 613.776, 308.547 591.574 L 326.500 551.205 327 602.353 L 327.500 653.500 342.500 653.500 L 357.500 653.500 357.500 576 L 357.500 498.500 340.500 498.215 C 331.150 498.058, 322.556 498.162, 321.402 498.446 C 319.014 499.033, 318.274 500.619, 293.426 558.349 C 284.467 579.165, 276.950 596.383, 276.724 596.610 C 276.497 596.837, 274.163 591.955, 271.538 585.761 C 255.578 548.110, 233.562 499.836, 231.958 498.978 C 229.116 497.457, 195.050 497.704, 194.460 499.250" stroke="none" fill="#143b54" fill-rule="evenodd"/><path d="M 0 331.002 L 0 662.003 286.750 661.752 L 573.500 661.500 573.751 330.750 L 574.003 -0 287.001 -0 L 0 0 0 331.002 M 0.494 331.500 C 0.494 513.550, 0.609 587.876, 0.750 496.669 C 0.891 405.462, 0.891 256.512, 0.750 165.669 C 0.609 74.826, 0.494 149.450, 0.494 331.500 M 249.500 7.689 C 231.339 10.045, 211.799 15.719, 198.598 22.469 C 164.589 39.858, 135.667 74.250, 124.031 111.137 C 122.233 116.836, 120.605 122.063, 120.413 122.750 C 120.197 123.519, 118.223 124.016, 115.281 124.041 C 94.979 124.216, 79.854 127.612, 63.895 135.579 C 33.621 150.692, 12.948 178.372, 3.832 216 C 2.945 219.661, 2.507 228.186, 2.522 241.500 C 2.542 258.911, 2.837 262.661, 4.806 270.471 C 10.960 294.884, 23.972 315.145, 43.981 331.470 C 50.130 336.486, 69.944 349.420, 70.517 348.791 C 70.662 348.631, 74.128 341.507, 78.217 332.959 C 87.879 312.764, 87.580 313, 103.528 313 C 123.883 313, 150.734 316.374, 171.755 321.572 C 213.134 331.806, 252.336 357.180, 276.650 389.468 C 279.318 393.010, 281.749 395.929, 282.053 395.954 C 282.357 395.979, 284.433 393.413, 286.665 390.250 C 301.128 369.761, 324.211 350.285, 348.848 337.784 C 359.875 332.189, 360.116 331.996, 357.348 330.986 C 350.293 328.411, 348.816 327.555, 346.101 324.463 C 341.870 319.643, 340.645 314.982, 341.453 306.777 C 341.832 302.937, 342.383 299.166, 342.678 298.398 C 343.516 296.214, 340.096 296.675, 330.330 300.063 C 313.505 305.898, 296.104 315.561, 273.641 331.543 C 270.968 333.444, 267.988 335, 267.019 335 C 266.049 335, 261.349 332.087, 256.574 328.527 C 233.403 311.252, 205.156 297.326, 176.189 288.896 C 172.168 287.726, 167.539 285.642, 165.903 284.265 C 160.031 279.324, 160 279.108, 160 243.296 L 160 210.493 148.750 205.602 C 133.371 198.917, 109.511 186.639, 103.782 182.465 C 98.038 178.280, 95.984 175.299, 95.293 170.149 C 94.786 166.371, 94.934 166.123, 99.159 163.647 C 101.575 162.231, 111.865 157.497, 122.026 153.128 C 142.267 144.423, 146.154 142.622, 194.500 119.555 C 212.650 110.896, 235.445 100.028, 245.155 95.405 C 256.182 90.155, 264.042 87, 266.094 87 C 267.970 87, 274.334 89.311, 280.939 92.391 C 287.297 95.356, 305.550 103.730, 321.500 110.999 C 384.374 139.655, 393.095 143.721, 409.612 152.080 C 427.180 160.972, 436.624 166.578, 437.388 168.568 C 437.627 169.190, 437.373 171.804, 436.824 174.376 C 436.094 177.800, 434.934 179.766, 432.494 181.712 C 429.130 184.396, 402.840 198.657, 393.393 202.922 L 388.286 205.227 387.602 219.914 C 386.920 234.567, 386.924 234.613, 389.600 239.399 C 393.363 246.132, 393.954 255.405, 391.130 263.399 C 389.377 268.363, 389.216 269.970, 390.112 273.532 C 390.699 275.860, 392.848 286.930, 394.889 298.133 L 398.599 318.500 402.050 318.419 C 403.947 318.375, 411.800 317.329, 419.500 316.096 C 428.567 314.644, 440.209 313.657, 452.542 313.294 C 469.241 312.802, 471.989 312.943, 474.880 314.438 C 477.710 315.901, 479.501 318.845, 487.551 335.261 C 492.707 345.776, 497.682 354.802, 498.606 355.319 C 500.871 356.587, 518.733 347.552, 528.973 339.960 C 550.839 323.748, 566.073 299.724, 570.467 274.529 C 578.101 230.755, 555.805 182.699, 522.715 171.604 C 519.241 170.439, 514.136 170, 504.076 170 C 485.071 170, 485.420 170.307, 485.737 153.827 C 485.867 147.047, 485.511 140.085, 484.945 138.357 C 483.160 132.908, 474.894 128.586, 458 124.271 C 453.074 123.013, 446.442 122.579, 430.616 122.477 L 409.733 122.342 407.314 113.921 C 395.456 72.642, 362.548 35.427, 322.896 18.456 C 304.810 10.714, 285.375 6.921, 265 7.156 C 258.125 7.235, 251.150 7.475, 249.500 7.689 M 456.500 66.686 C 455.400 66.986, 454.169 67.742, 453.765 68.366 C 452.467 70.370, 452.861 102.461, 454.200 103.800 C 455.028 104.628, 460.117 105, 470.629 105 C 483.139 105, 486.138 104.720, 487.429 103.429 C 489.823 101.035, 489.752 69.870, 487.348 67.872 C 486.153 66.880, 481.935 66.450, 472.098 66.320 C 464.619 66.221, 457.600 66.386, 456.500 66.686 M 258.500 105.711 C 250.010 110.156, 217.617 125.273, 167.500 148.179 C 141.100 160.245, 118.841 170.766, 118.036 171.558 C 116.750 172.824, 116.750 173.169, 118.036 174.383 C 118.841 175.143, 136.825 183.876, 158 193.789 C 179.175 203.702, 211.800 219.089, 230.500 227.981 C 249.224 236.885, 265.848 244.191, 267.500 244.242 C 271.188 244.355, 341 212.334, 341 210.529 C 341 209.171, 326.594 202.158, 287.500 184.484 C 273.200 178.019, 260.712 172.046, 259.750 171.210 C 257.405 169.174, 257.533 164.467, 260 162 C 263.635 158.365, 269.234 159.306, 283.099 165.879 C 289.920 169.113, 309.900 178.118, 327.500 185.891 C 345.100 193.665, 360.175 200.405, 361 200.870 C 362.237 201.567, 362.548 205.095, 362.772 220.951 L 363.044 240.186 360.022 243.628 C 357.516 246.482, 357 247.928, 357 252.101 C 357 257.363, 357.989 260.112, 361.126 263.565 C 362.891 265.509, 362.911 265.937, 361.467 270.798 C 358.814 279.732, 353.266 312.398, 354.113 314.099 C 355.679 317.245, 380.185 317.178, 383.373 314.019 C 384.270 313.131, 379.139 280.943, 376.530 271.094 C 375.138 265.838, 375.170 265.566, 377.672 261.297 C 380.998 255.621, 380.604 248.792, 376.651 243.609 L 374 240.133 374.001 218.817 L 374.003 197.500 395.751 186.500 C 409.509 179.542, 417.500 174.950, 417.500 174.002 C 417.500 172.091, 419.215 172.937, 361.500 146.381 C 334.550 133.980, 302.327 119.147, 289.893 113.417 C 277.459 107.688, 266.434 103.021, 265.393 103.047 C 264.352 103.072, 261.250 104.271, 258.500 105.711 M 507.200 106.200 C 505.537 107.863, 505.537 132.137, 507.200 133.800 C 508.863 135.463, 533.137 135.463, 534.800 133.800 C 535.606 132.994, 536 128.467, 536 120 C 536 111.533, 535.606 107.006, 534.800 106.200 C 533.137 104.537, 508.863 104.537, 507.200 106.200 M 174.607 217.727 C 174.273 218.060, 174 230.564, 174 245.512 C 174 270.156, 174.163 272.830, 175.750 274.195 C 176.713 275.023, 184.194 277.826, 192.376 280.423 C 221.572 289.692, 238.880 298.495, 262.809 316.247 C 266.806 319.211, 267.286 319.337, 269.414 317.972 C 270.676 317.162, 276.612 313.171, 282.604 309.102 C 299.506 297.625, 324.899 286.340, 340.277 283.472 C 344.520 282.680, 345.214 281.721, 346.976 274.215 C 348.099 269.430, 348.017 268.467, 346.108 264.030 C 343.501 257.969, 343.359 249.438, 345.637 235.764 C 346.537 230.361, 346.989 225.655, 346.641 225.308 C 346.294 224.960, 334.409 230.336, 320.232 237.253 C 276.361 258.660, 272.485 260.304, 267.144 259.772 C 263.740 259.432, 252.225 254.306, 224 240.562 C 177.849 218.089, 175.384 216.950, 174.607 217.727 M 98.438 331.708 L 94.375 332.097 83.179 357.298 C 77.020 371.159, 71.986 383.057, 71.991 383.738 C 71.998 384.702, 76.698 384.838, 93.250 384.354 C 143.896 382.875, 189.059 391.647, 227.500 410.432 C 243.461 418.231, 254.939 426.314, 269.101 439.729 C 275.065 445.378, 280.693 450, 281.608 450 C 282.522 450, 287.073 446.513, 291.720 442.250 C 322.254 414.245, 351.796 399.802, 398.500 390.048 C 422.360 385.065, 438.997 383.684, 467.215 384.344 C 480.808 384.662, 492.170 384.533, 492.464 384.058 C 493.061 383.092, 487.592 370.003, 477.190 347.500 L 470.256 332.500 464.378 331.891 C 457.079 331.134, 436.094 332.393, 421.500 334.462 C 364.014 342.612, 314.541 371.548, 286.820 413.235 L 282.341 419.971 276.420 411.244 C 269.994 401.772, 252.104 383.093, 242.500 375.829 C 210.007 351.249, 173.812 337.560, 129.500 333.091 C 116.650 331.795, 103.598 331.214, 98.438 331.708 M 83.500 405.028 C 70.837 406.150, 60.363 407.872, 56.462 409.473 C 54.109 410.440, 52.687 412.322, 50.146 417.833 C 48.343 421.746, 46.827 426.376, 46.777 428.122 C 46.674 431.778, 49.389 434.367, 52.508 433.586 C 59.575 431.816, 74.924 429.923, 90 428.961 C 141.557 425.672, 193.040 435.487, 235.392 456.680 C 246.721 462.349, 259.566 470.637, 265.499 476.106 C 268.850 479.194, 271.490 480.613, 275.756 481.617 C 287.193 484.309, 290.928 483.278, 300.993 474.652 C 312.884 464.461, 339.271 450.310, 358.410 443.861 C 406.858 427.536, 456.129 424.201, 510.137 433.593 C 513.044 434.098, 514.200 433.800, 515.887 432.113 C 517.049 430.951, 518 429.156, 518 428.125 C 518 424.851, 511.195 411.173, 508.801 409.634 C 504.114 406.621, 482.123 404.603, 453.500 404.559 C 424.540 404.515, 418.335 405.090, 393.618 410.106 C 374.450 413.997, 356.787 419.451, 338.928 426.996 C 317.661 435.980, 303.732 444.076, 287.552 456.858 L 282.035 461.216 277.268 457.284 C 248.365 433.447, 200.946 414.357, 152.270 406.962 C 136.517 404.569, 100.209 403.548, 83.500 405.028 M 432.470 494.982 C 418.634 496.929, 407.360 502.469, 399.543 511.164 C 391.065 520.593, 387.396 531.835, 388.262 545.726 C 388.915 556.183, 391.953 562.774, 399.344 569.764 C 408.058 578.006, 418.067 582.425, 443 589.043 C 460.509 593.689, 469.037 597.689, 472.592 602.920 C 476.845 609.179, 475.290 618.054, 469.015 623.334 C 463.014 628.384, 459.464 629.368, 447 629.437 C 437.314 629.490, 434.779 629.167, 430.930 627.386 C 424.976 624.632, 419.414 618.858, 416.107 612 L 413.455 606.500 399.486 606.220 C 383.341 605.897, 382.731 606.178, 384.068 613.334 C 388.067 634.741, 402.519 648.962, 426.410 655.001 C 437.305 657.754, 456.631 657.780, 467.287 655.055 C 493.348 648.389, 507.171 631.920, 507.202 607.500 C 507.220 592.625, 502.546 583.180, 491.242 575.251 C 483.710 569.967, 476.059 566.986, 457.252 562.008 C 439.297 557.256, 432.995 554.905, 427.625 550.956 C 422.265 547.014, 420.014 543.305, 420.007 538.398 C 419.991 528.860, 428.689 522.867, 443.500 522.210 C 450.940 521.880, 453.491 522.184, 458.218 523.965 C 464.636 526.384, 471.114 532.786, 473.036 538.611 L 474.172 542.052 488.836 541.776 L 503.500 541.500 503.803 537.875 C 504.194 533.194, 500.784 523.130, 496.581 516.559 C 490.331 506.789, 481.034 500.693, 466.888 497.091 C 457.951 494.815, 441.029 493.778, 432.470 494.982 M 68.116 498.360 C 67.295 499.350, 67.057 520.637, 67.244 576.610 L 67.500 653.500 116.886 653.760 C 153.101 653.950, 166.643 653.711, 167.664 652.864 C 168.751 651.961, 168.995 648.841, 168.778 638.604 L 168.500 625.500 135 625 L 101.500 624.500 101.242 562.093 C 101.060 518.023, 100.657 499.292, 99.870 498.343 C 98.255 496.397, 69.733 496.412, 68.116 498.360 M 193.607 499.582 C 193.273 500.452, 193 535.047, 193 576.459 C 193 639.426, 193.227 651.944, 194.386 652.906 C 195.326 653.686, 200.397 653.967, 210.136 653.778 L 224.500 653.500 224.759 602.507 L 225.019 551.513 241.483 586.507 C 250.538 605.753, 259.196 623.975, 260.723 627 L 263.500 632.500 276.419 632.781 C 283.524 632.936, 289.748 632.652, 290.250 632.150 C 291.012 631.388, 311.912 585.219, 323.293 559.156 L 326.500 551.811 327 602.656 L 327.500 653.500 341.864 653.778 C 351.603 653.967, 356.674 653.686, 357.614 652.906 C 359.519 651.324, 359.701 501.101, 357.800 499.200 C 356.065 497.465, 320.648 497.511, 319.214 499.250 C 318.282 500.380, 295.478 552.421, 282.007 584.160 L 276.634 596.819 265.453 571.160 C 243.160 520, 233.916 499.565, 232.720 498.806 C 232.049 498.379, 223.111 498.024, 212.857 498.015 C 196.770 498.002, 194.131 498.217, 193.607 499.582" stroke="none" fill="#f3f3f2" fill-rule="evenodd"/><path d="M 249.500 7.766 C 241.728 8.575, 228.593 11.359, 219.723 14.078 C 208.126 17.633, 195 23.433, 195 25.002 C 195 25.616, 194.607 25.875, 194.126 25.578 C 192.946 24.849, 181 32.645, 181 34.145 C 181 34.799, 180.716 35.050, 180.370 34.703 C 178.630 32.964, 150 60.218, 150 63.613 C 150 64.376, 149.542 65, 148.982 65 C 147.644 65, 136.749 81.607, 132.275 90.466 C 127.741 99.444, 121.766 115.947, 122.426 117.668 C 122.707 118.400, 122.501 119, 121.969 119 C 121.436 119, 121 119.914, 121 121.031 C 121 123.546, 120.410 123.736, 110.500 124.415 C 95.345 125.453, 91.484 125.867, 86.250 127.015 C 83.363 127.648, 81 128.598, 81 129.127 C 81 129.655, 80.438 129.983, 79.750 129.855 C 77.500 129.437, 72 131.133, 72 132.246 C 72 132.844, 71.712 133.045, 71.359 132.692 C 70.552 131.886, 53 140.881, 53 142.101 C 53 142.596, 52.351 143, 51.557 143 C 50.763 143, 49.485 143.897, 48.717 144.994 C 47.949 146.090, 47.050 146.717, 46.719 146.386 C 45.802 145.469, 25.801 165.870, 26.504 167.006 C 26.842 167.553, 26.663 168, 26.107 168 C 24.847 168, 18.667 176.865, 18.667 178.672 C 18.667 179.403, 18.366 180, 17.999 180 C 16.832 180, 8.795 197.859, 9.471 198.952 C 9.827 199.529, 9.713 200, 9.217 200 C 8.154 200, 4.977 210.188, 4.696 214.500 C 4.588 216.150, 4.056 217.817, 3.514 218.205 C 2.919 218.630, 2.533 227.343, 2.540 240.205 C 2.550 258.971, 2.820 262.565, 4.809 270.471 C 12.520 301.106, 30.166 324.133, 60.310 342.894 C 70.320 349.124, 71.587 349.759, 70.500 348 C 70.160 347.450, 70.328 347, 70.874 347 C 71.868 347, 73.570 343.157, 73.198 341.750 C 73.089 341.338, 73.415 341, 73.922 341 C 74.815 341, 77.073 335.415, 76.910 333.612 C 76.865 333.123, 77.260 332.448, 77.787 332.112 C 78.314 331.775, 80.360 328.284, 82.333 324.354 C 87.752 313.560, 88.797 313, 103.528 313 C 116.610 313, 137.885 314.957, 152.318 317.488 C 157.168 318.338, 161.555 318.775, 162.068 318.458 C 162.581 318.141, 163 318.276, 163 318.758 C 163 319.496, 174.387 322.420, 177.500 322.480 C 178.050 322.491, 178.725 322.725, 179 323 C 179.275 323.275, 183.325 324.789, 188 326.364 C 199.702 330.307, 219.375 339.815, 229.537 346.439 C 234.192 349.473, 238 351.654, 238 351.286 C 238 350.919, 238.563 351.325, 239.250 352.189 C 239.938 353.053, 244.895 357.439, 250.266 361.936 C 261.719 371.524, 265.532 375.462, 274.705 387.181 C 278.442 391.956, 281.749 395.893, 282.053 395.931 C 282.357 395.969, 284.433 393.413, 286.665 390.250 C 300.786 370.245, 323.635 350.779, 347.468 338.447 C 353.139 335.513, 357.491 332.790, 357.140 332.397 C 356.788 332.003, 357.400 332.005, 358.500 332.400 C 359.701 332.831, 360.101 332.761, 359.500 332.225 C 358.950 331.733, 356.439 330.573, 353.920 329.648 C 344.568 326.211, 340.774 319.315, 341.213 306.552 C 341.371 301.967, 341.837 298.418, 342.250 298.667 C 342.663 298.915, 343 298.641, 343 298.059 C 343 296.306, 339.620 296.840, 330.330 300.063 C 313.505 305.898, 296.104 315.561, 273.641 331.543 C 270.968 333.444, 267.991 335, 267.026 335 C 266.060 335, 261.046 331.854, 255.885 328.008 C 250.723 324.162, 245.975 321.012, 245.333 321.008 C 244.692 321.004, 244.017 320.606, 243.833 320.125 C 242.540 316.731, 201.828 296.299, 193.450 294.840 C 192.377 294.653, 191.275 294.214, 191 293.863 C 190.725 293.513, 185.775 291.821, 180 290.104 C 168.592 286.711, 165.685 285.057, 162.250 280.010 C 160.037 276.758, 159.998 276.170, 159.882 244.102 C 159.816 226.171, 159.828 211.129, 159.906 210.676 C 159.985 210.222, 159.588 210.136, 159.025 210.485 C 158.461 210.833, 158 210.641, 158 210.059 C 158 209.477, 157.590 209, 157.088 209 C 156.587 209, 149.274 205.828, 140.838 201.952 C 132.402 198.076, 125.050 194.813, 124.500 194.702 C 123.950 194.591, 123.275 194.251, 123 193.946 C 122.725 193.641, 118.578 191.207, 113.784 188.536 C 99.634 180.653, 95 175.728, 95 168.574 C 95 165.282, 98.758 163.134, 122.026 153.128 C 142.267 144.423, 146.154 142.622, 194.500 119.555 C 212.650 110.896, 235.445 100.028, 245.155 95.405 C 256.182 90.155, 264.042 87, 266.094 87 C 267.970 87, 274.334 89.311, 280.939 92.391 C 287.297 95.356, 305.550 103.730, 321.500 110.999 C 384.374 139.655, 393.095 143.721, 409.612 152.080 C 427.180 160.972, 436.624 166.578, 437.388 168.568 C 437.627 169.190, 437.373 171.804, 436.824 174.376 C 436.094 177.800, 434.934 179.766, 432.494 181.712 C 429.130 184.396, 402.840 198.657, 393.393 202.922 L 388.286 205.227 387.602 219.914 C 386.920 234.567, 386.924 234.613, 389.600 239.399 C 393.341 246.093, 393.953 255.410, 391.169 263.290 L 389.123 269.080 391.136 278.790 C 392.243 284.130, 393.386 289.175, 393.676 290 C 393.966 290.825, 394.373 293.467, 394.581 295.872 C 394.788 298.277, 395.413 300.793, 395.970 301.464 C 396.527 302.135, 396.747 302.919, 396.460 303.207 C 396.172 303.495, 396.461 306.907, 397.102 310.790 C 398.506 319.289, 399.251 319.670, 410.094 317.429 C 414.167 316.587, 418.175 315.861, 419 315.816 C 419.825 315.771, 425.900 315.106, 432.500 314.338 C 449.224 312.390, 471.150 312.509, 475.132 314.568 C 477.641 315.866, 479.832 319.509, 487.609 335.321 C 492.797 345.870, 497.482 354.388, 498.021 354.250 C 498.559 354.113, 499 354.480, 499 355.067 C 499 356.375, 503.181 355.215, 504.235 353.615 C 504.639 353.002, 504.976 352.849, 504.985 353.276 C 505.004 354.257, 511.249 351.100, 512.235 349.610 C 512.639 349, 512.976 348.856, 512.985 349.292 C 513.040 352.132, 544 329.436, 544 326.556 C 544 326.133, 545.202 324.843, 546.670 323.687 C 551.071 320.226, 560.774 304.183, 564.997 293.385 C 570.549 279.191, 572.395 267.663, 571.625 252 C 571.046 240.209, 569.039 227.475, 567.328 224.733 C 566.904 224.055, 566.427 222.659, 566.267 221.631 C 565.234 214.989, 552.860 192.651, 549.500 191.362 C 548.675 191.045, 548 190.243, 548 189.580 C 548 188.917, 546.580 187.052, 544.845 185.437 C 543.110 183.822, 542.031 183.175, 542.447 184 C 542.863 184.825, 541.997 184.033, 540.522 182.240 C 539.047 180.448, 537.473 179.208, 537.025 179.485 C 536.576 179.762, 535.984 179.401, 535.708 178.683 C 535.433 177.964, 532.123 175.837, 528.354 173.955 C 521.591 170.578, 521.285 170.526, 505.282 170.017 C 484.464 169.353, 485.417 170.149, 485.737 153.701 C 486.017 139.285, 485.177 136.087, 480.208 132.648 C 471.025 126.294, 456.480 122.981, 434.750 122.295 C 424.047 121.957, 417 122.105, 417 122.667 C 417 123.985, 409.914 123.004, 409.527 121.632 C 403.622 100.742, 398.251 88.581, 388.491 74 C 382.297 64.748, 367.632 47, 366.180 47 C 365.781 47, 362.811 44.540, 359.580 41.532 C 356.348 38.525, 353.321 36.302, 352.852 36.591 C 352.384 36.881, 352 36.658, 352 36.096 C 352 34.907, 340.008 26.539, 339.985 27.713 C 339.976 28.146, 339.639 28.011, 339.235 27.413 C 337.290 24.537, 312.892 13.331, 311.051 14.469 C 310.567 14.768, 310.020 14.591, 309.835 14.076 C 309.651 13.561, 308.150 12.996, 306.500 12.820 C 304.850 12.644, 303.223 12.121, 302.884 11.658 C 302.546 11.195, 300.411 10.745, 298.140 10.658 C 295.869 10.571, 294.009 10.220, 294.006 9.879 C 293.991 8.240, 260.304 6.641, 249.500 7.766 M 457.048 66.919 C 456.249 67.441, 455.167 67.603, 454.643 67.280 C 454.119 66.956, 454.012 67.211, 454.405 67.845 C 454.797 68.480, 454.653 69, 454.085 69 C 452.677 69, 452.788 102.039, 454.201 103.743 C 454.953 104.649, 459.379 105, 470.041 105 C 484.869 105, 488.467 104.565, 487.435 102.895 C 487.131 102.403, 487.369 102, 487.965 102 C 489.477 102, 489.124 69.198, 487.602 68.246 C 485.457 66.904, 483.368 66.661, 471 66.318 C 464.125 66.126, 457.846 66.397, 457.048 66.919 M 507.200 106.200 C 505.562 107.838, 505.524 132.588, 507.158 133.597 C 508.904 134.677, 533.314 134.755, 534.750 133.686 C 536.466 132.408, 536.510 107.910, 534.800 106.200 C 533.137 104.537, 508.863 104.537, 507.200 106.200 M 373.201 218.691 C 373.091 230.896, 373.337 241.091, 373.750 241.348 C 374.163 241.604, 374.384 234.993, 374.242 226.657 C 373.773 199.038, 373.405 196.222, 373.201 218.691 M 343.252 252.500 C 343.263 254.700, 343.468 255.482, 343.707 254.238 C 343.946 252.994, 343.937 251.194, 343.687 250.238 C 343.437 249.282, 343.241 250.300, 343.252 252.500 M 103.762 331.707 C 105.006 331.946, 106.806 331.937, 107.762 331.687 C 108.718 331.437, 107.700 331.241, 105.500 331.252 C 103.300 331.263, 102.518 331.468, 103.762 331.707 M 455.250 331.689 C 456.212 331.941, 457.788 331.941, 458.750 331.689 C 459.712 331.438, 458.925 331.232, 457 331.232 C 455.075 331.232, 454.288 331.438, 455.250 331.689 M 454.776 383.733 C 457.128 383.945, 460.728 383.942, 462.776 383.727 C 464.824 383.512, 462.900 383.339, 458.500 383.343 C 454.100 383.346, 452.424 383.522, 454.776 383.733 M 95.750 404.723 C 97.537 404.945, 100.463 404.945, 102.250 404.723 C 104.037 404.502, 102.575 404.320, 99 404.320 C 95.425 404.320, 93.963 404.502, 95.750 404.723 M 123.762 404.707 C 125.006 404.946, 126.806 404.937, 127.762 404.687 C 128.718 404.437, 127.700 404.241, 125.500 404.252 C 123.300 404.263, 122.518 404.468, 123.762 404.707 M 465.264 404.718 C 466.784 404.947, 469.034 404.941, 470.264 404.704 C 471.494 404.467, 470.250 404.279, 467.500 404.286 C 464.750 404.294, 463.744 404.488, 465.264 404.718 M 93.250 428.689 C 94.213 428.941, 95.787 428.941, 96.750 428.689 C 97.713 428.438, 96.925 428.232, 95 428.232 C 93.075 428.232, 92.287 428.438, 93.250 428.689 M 119.762 428.707 C 121.006 428.946, 122.806 428.937, 123.762 428.687 C 124.718 428.437, 123.700 428.241, 121.500 428.252 C 119.300 428.263, 118.518 428.468, 119.762 428.707 M 438.250 428.689 C 439.212 428.941, 440.788 428.941, 441.750 428.689 C 442.712 428.438, 441.925 428.232, 440 428.232 C 438.075 428.232, 437.288 428.438, 438.250 428.689 M 467.762 428.707 C 469.006 428.946, 470.806 428.937, 471.762 428.687 C 472.718 428.437, 471.700 428.241, 469.500 428.252 C 467.300 428.263, 466.518 428.468, 467.762 428.707 M 77.250 429.689 C 78.213 429.941, 79.787 429.941, 80.750 429.689 C 81.713 429.438, 80.925 429.232, 79 429.232 C 77.075 429.232, 76.287 429.438, 77.250 429.689 M 293.437 440.250 L 290.500 443.500 293.750 440.563 C 296.779 437.825, 297.460 437, 296.687 437 C 296.515 437, 295.052 438.462, 293.437 440.250 M 273 443.500 C 275.987 446.525, 278.657 449, 278.932 449 C 279.207 449, 276.987 446.525, 274 443.500 C 271.013 440.475, 268.343 438, 268.068 438 C 267.793 438, 270.013 440.475, 273 443.500 M 282.264 482.718 C 283.784 482.947, 286.034 482.941, 287.264 482.704 C 288.494 482.467, 287.250 482.279, 284.500 482.286 C 281.750 482.294, 280.744 482.488, 282.264 482.718 M 440.750 494.723 C 442.538 494.945, 445.462 494.945, 447.250 494.723 C 449.038 494.502, 447.575 494.320, 444 494.320 C 440.425 494.320, 438.962 494.502, 440.750 494.723 M 75.206 497.741 C 78.895 497.932, 85.195 497.934, 89.206 497.743 C 93.218 497.553, 90.200 497.396, 82.500 497.395 C 74.800 497.393, 71.518 497.549, 75.206 497.741 M 193.476 576 C 193.476 618.075, 193.599 635.288, 193.750 614.250 C 193.900 593.213, 193.900 558.788, 193.750 537.750 C 193.599 516.712, 193.476 533.925, 193.476 576 M 358.476 576 C 358.476 618.075, 358.599 635.288, 358.750 614.250 C 358.900 593.213, 358.900 558.788, 358.750 537.750 C 358.599 516.712, 358.476 533.925, 358.476 576 M 444.250 630.689 C 445.212 630.941, 446.788 630.941, 447.750 630.689 C 448.712 630.438, 447.925 630.232, 446 630.232 C 444.075 630.232, 443.288 630.438, 444.250 630.689" stroke="none" fill="#175374" fill-rule="evenodd"/></svg>