<?xml version="1.0" standalone="no"?>
<!DOCTYPE svg PUBLIC "-//W3C//DTD SVG 20010904//EN" "http://www.w3.org/TR/2001/REC-SVG-20010904/DTD/svg10.dtd">
<svg xmlns="http://www.w3.org/2000/svg" version="1.0" width="256.000000pt" height="256.000000pt" viewBox="0 0 1024.000000 1024.000000" preserveAspectRatio="xMidYMid meet">
<metadata>
Created by potrace 1.16, written by Peter Selinger 2001-2019
<meta name="Producer" content="Online-Convert"/></metadata>
<g transform="translate(0.000000,1024.000000) scale(0.100000,-0.100000)" fill="#000000" stroke="none">
<path d="M4725 8411 c-163 -27 -286 -65 -420 -130 -266 -130 -498 -356 -654 -637 -56 -100 -113 -241 -131 -325 l-13 -57 -111 -7 c-217 -12 -352 -49 -509 -139 -295 -168 -505 -487 -558 -846 -17 -117 -6 -372 20 -470 59 -226 142 -374 297 -527 109 -107 341 -268 362 -251 6 6 12 14 12 18 0 5 32 74 72 155 54 112 78 150 99 161 55 28 371 14 614 -27 445 -75 774 -233 1075 -516 82 -77 203 -215 230 -262 8 -14 11 -13 27 9 171 241 409 445 665 570 l97 48 -45 17 c-59 22 -100 58 -126 108 -18 36 -20 51 -14 134 5 57 4 93 -2 93 -31 0 -165 -50 -277 -104 -142 -68 -201 -103 -346 -207 -53 -38 -105 -69 -116 -69 -11 0 -60 30 -109 66 -211 155 -437 272 -698 359 -206 69 -209 70 -237 109 -24 31 -24 32 -27 372 l-3 340 -92 39 c-152 63 -423 203 -477 246 -52 41 -80 88 -80 134 0 34 35 54 275 157 110 47 360 162 555 256 195 93 471 224 613 292 l258 122 42 -15 c36 -13 409 -182 1087 -494 208 -95 483 -235 547 -277 23 -16 45 -37 48 -47 10 -30 -13 -93 -42 -121 -27 -25 -194 -118 -369 -206 l-81 -41 -6 -141 c-6 -140 -6 -141 24 -203 36 -76 39 -160 9 -239 -18 -48 -18 -55 -4 -112 8 -34 30 -144 48 -246 l33 -185 29 1 c16 0 92 11 169 23 99 17 198 25 340 28 184 4 202 3 230 -15 23 -14 52 -64 124 -210 52 -105 101 -194 109 -197 19 -7 156 60 254 124 94 61 225 184 283 266 145 203 211 452 187 703 -32 342 -201 615 -450 730 -52 24 -72 27 -215 32 -206 7 -199 -1 -195 186 3 129 2 133 -22 159 -50 54 -157 94 -315 120 -95 16 -274 19 -363 6 l-52 -7 -10 40 c-61 239 -192 472 -374 663 -213 224 -448 359 -746 430 -145 34 -386 40 -545 14z"/>
<path d="M6842 7818 c-8 -8 -12 -63 -12 -180 0 -155 1 -168 19 -178 11 -5 84 -10 165 -10 118 0 147 3 160 16 13 13 16 44 16 178 0 113 -4 166 -12 174 -8 8 -60 12 -168 12 -108 0 -160 -4 -168 -12z"/>
<path d="M4875 7438 c-106 -55 -445 -213 -919 -429 -253 -116 -468 -217 -476 -225 -13 -12 -13 -16 0 -28 8 -7 103 -54 210 -104 179 -83 758 -355 1110 -523 84 -39 159 -69 177 -69 39 0 733 317 733 335 0 12 -153 86 -575 277 -121 55 -228 107 -237 116 -24 20 -23 67 2 92 36 36 93 27 221 -34 63 -30 263 -120 444 -200 182 -80 337 -150 345 -155 12 -7 15 -42 18 -201 l2 -193 -27 -29 c-25 -26 -28 -37 -28 -92 0 -53 4 -68 28 -100 28 -36 28 -37 13 -84 -22 -70 -70 -340 -71 -397 l0 -50 70 -7 c71 -7 203 6 218 21 9 9 -32 273 -63 405 l-18 79 25 46 c32 59 28 124 -10 174 l-26 35 -1 213 -2 213 211 106 c116 58 216 111 223 118 18 18 -2 33 -122 87 -58 26 -392 180 -742 341 -350 162 -645 294 -655 294 -10 -1 -45 -15 -78 -32z"/>
<path d="M7372 7438 c-8 -8 -12 -53 -12 -138 0 -85 4 -130 12 -138 8 -8 53 -12 138 -12 85 0 130 4 138 12 15 15 17 241 2 269 -10 17 -22 19 -138 19 -86 0 -132 -4 -140 -12z"/>
<path d="M4046 6323 c-3 -4 -6 -129 -6 -278 0 -315 -8 -291 110 -325 289 -83 484 -175 707 -331 62 -44 115 -79 118 -79 3 0 53 34 111 74 167 119 363 212 569 271 49 14 92 31 96 37 4 6 12 36 19 67 10 50 9 61 -9 101 -26 56 -27 155 -5 287 9 52 14 97 11 100 -3 3 -72 -27 -154 -67 -456 -223 -583 -280 -629 -280 -38 0 -101 27 -397 171 -480 233 -534 258 -541 252z"/>
<path d="M3302 5182 c-47 -3 -54 -6 -68 -35 -35 -66 -214 -472 -214 -484 0 -9 52 -10 218 -6 497 13 936 -70 1309 -247 194 -92 310 -174 492 -349 35 -34 70 -61 77 -61 8 0 58 40 112 88 53 48 126 110 162 137 391 299 1044 468 1663 431 101 -6 162 -5 168 1 9 9 -23 88 -164 398 l-54 120 -139 3 c-214 4 -492 -37 -704 -103 -432 -137 -758 -368 -987 -702 l-50 -72 -50 72 c-245 353 -641 614 -1108 731 -212 53 -501 87 -663 78z"/>
<path d="M3157 4449 c-119 -8 -234 -25 -285 -41 -29 -9 -39 -21 -68 -81 -43 -90 -46 -144 -9 -153 14 -4 74 1 132 10 232 36 564 43 808 16 434 -47 894 -211 1158 -413 38 -29 82 -62 99 -74 38 -28 128 -47 184 -38 33 5 60 20 111 62 193 160 459 290 755 372 289 80 477 105 803 105 225 0 337 -9 499 -40 89 -18 121 -11 131 29 7 28 -47 167 -75 192 -34 31 -339 65 -574 65 -574 0 -1199 -189 -1581 -478 -48 -37 -96 -73 -106 -81 -16 -12 -26 -8 -81 37 -334 265 -857 457 -1377 507 -163 16 -344 17 -524 4z"/>
<path d="M6645 3550 c-97 -11 -149 -26 -227 -67 -187 -98 -281 -327 -219 -533 20 -64 31 -81 84 -135 95 -94 213 -147 465 -210 222 -55 302 -112 302 -214 0 -123 -119 -198 -304 -189 -146 7 -227 57 -284 176 l-27 57 -145 0 -145 0 -3 -33 c-2 -18 4 -58 13 -90 51 -175 158 -279 360 -348 68 -23 101 -28 220 -31 162 -6 250 9 354 57 138 65 217 150 261 281 19 54 21 81 18 174 -3 95 -8 117 -30 161 -63 121 -189 199 -418 260 -196 52 -276 79 -331 115 -122 78 -119 204 6 268 44 23 61 26 160 26 94 0 116 -3 151 -22 55 -30 101 -78 120 -130 l17 -43 144 0 c166 0 164 -1 145 89 -18 87 -75 193 -131 243 -119 107 -342 162 -556 138z"/>
<path d="M2982 3518 c-9 -9 -12 -196 -12 -779 0 -690 2 -767 16 -773 9 -3 233 -6 498 -6 362 0 485 3 494 12 14 14 17 245 4 265 -6 10 -89 13 -338 15 l-329 3 -3 625 c-2 573 -3 626 -19 638 -23 17 -294 17 -311 0z"/>
<path d="M4236 3504 c-3 -9 -6 -354 -6 -769 0 -629 2 -754 14 -764 9 -8 60 -11 157 -9 l144 3 5 507 5 506 62 -131 c34 -73 117 -249 184 -392 67 -143 126 -266 132 -273 7 -9 44 -12 141 -10 l131 3 65 146 c36 80 117 261 180 403 l115 257 5 -508 5 -508 144 -3 c92 -2 148 1 155 8 12 12 17 1492 4 1528 -7 22 -10 22 -192 22 -135 0 -186 -3 -193 -12 -11 -13 -175 -387 -338 -771 -85 -197 -89 -206 -101 -180 -216 503 -406 928 -422 946 -13 15 -37 17 -202 17 -162 0 -189 -2 -194 -16z"/>
</g>
</svg>
